<svg id="visual" viewBox="0 0 960 540" width="960" height="540" xmlns="http://www.w3.org/2000/svg" xmlns:xlink="http://www.w3.org/1999/xlink" version="1.1"><path d="M0 147L87 93L175 104L262 87L349 55L436 152L524 120L611 109L698 147L785 141L873 125L960 125L960 0L873 0L785 0L698 0L611 0L524 0L436 0L349 0L262 0L175 0L87 0L0 0Z" fill="#a69ef0"></path><path d="M0 185L87 195L175 147L262 147L349 147L436 195L524 152L611 147L698 244L785 179L873 233L960 195L960 123L873 123L785 139L698 145L611 107L524 118L436 150L349 53L262 85L175 102L87 91L0 145Z" fill="#b5adf3"></path><path d="M0 271L87 260L175 201L262 185L349 228L436 255L524 244L611 217L698 282L785 271L873 298L960 228L960 193L873 231L785 177L698 242L611 145L524 150L436 193L349 145L262 145L175 145L87 193L0 183Z" fill="#c3bdf5"></path><path d="M0 449L87 411L175 363L262 433L349 417L436 379L524 460L611 406L698 390L785 384L873 433L960 384L960 226L873 296L785 269L698 280L611 215L524 242L436 253L349 226L262 183L175 199L87 258L0 269Z" fill="#d1ccf7"></path><path d="M0 541L87 541L175 541L262 541L349 541L436 541L524 541L611 541L698 541L785 541L873 541L960 541L960 382L873 431L785 382L698 388L611 404L524 458L436 377L349 415L262 431L175 361L87 409L0 447Z" fill="#dfdcf9"></path></svg>